<mxfile host="app.diagrams.net" modified="2023-10-20T17:55:42.279Z" agent="Mozilla/5.0 (Windows NT 10.0; Win64; x64) AppleWebKit/537.36 (KHTML, like Gecko) Chrome/118.0.0.0 Safari/537.36 Edg/118.0.2088.57" etag="6sEiyZkPwyuMklUEinOP" version="22.0.6" type="github">
  <diagram name="Página-1" id="OMveomJTfSsg3XNyGUsq">
    <mxGraphModel dx="1426" dy="793" grid="1" gridSize="10" guides="1" tooltips="1" connect="1" arrows="1" fold="1" page="1" pageScale="1" pageWidth="827" pageHeight="1169" math="0" shadow="0">
      <root>
        <mxCell id="0" />
        <mxCell id="1" parent="0" />
        <mxCell id="88_fFIN6dx6QBWa1paX3-6" style="edgeStyle=orthogonalEdgeStyle;rounded=0;orthogonalLoop=1;jettySize=auto;html=1;exitX=0;exitY=0.5;exitDx=0;exitDy=0;" edge="1" parent="1" source="88_fFIN6dx6QBWa1paX3-1">
          <mxGeometry relative="1" as="geometry">
            <mxPoint x="20" y="295" as="targetPoint" />
          </mxGeometry>
        </mxCell>
        <mxCell id="88_fFIN6dx6QBWa1paX3-1" value="&lt;h2&gt;Médico&lt;/h2&gt;" style="rounded=0;whiteSpace=wrap;html=1;" vertex="1" parent="1">
          <mxGeometry x="20" y="260" width="110" height="70" as="geometry" />
        </mxCell>
        <mxCell id="88_fFIN6dx6QBWa1paX3-5" value="" style="endArrow=none;html=1;rounded=0;exitX=1;exitY=0.5;exitDx=0;exitDy=0;entryX=0;entryY=0.5;entryDx=0;entryDy=0;" edge="1" parent="1" source="88_fFIN6dx6QBWa1paX3-1" target="88_fFIN6dx6QBWa1paX3-7">
          <mxGeometry width="50" height="50" relative="1" as="geometry">
            <mxPoint x="280" y="350" as="sourcePoint" />
            <mxPoint x="230" y="295" as="targetPoint" />
          </mxGeometry>
        </mxCell>
        <mxCell id="88_fFIN6dx6QBWa1paX3-7" value="" style="rhombus;whiteSpace=wrap;html=1;" vertex="1" parent="1">
          <mxGeometry x="290" y="242.5" width="130" height="105" as="geometry" />
        </mxCell>
        <mxCell id="88_fFIN6dx6QBWa1paX3-8" value="" style="endArrow=none;html=1;rounded=0;exitX=1;exitY=0.5;exitDx=0;exitDy=0;" edge="1" parent="1" source="88_fFIN6dx6QBWa1paX3-7" target="88_fFIN6dx6QBWa1paX3-9">
          <mxGeometry width="50" height="50" relative="1" as="geometry">
            <mxPoint x="390" y="430" as="sourcePoint" />
            <mxPoint x="480" y="295" as="targetPoint" />
          </mxGeometry>
        </mxCell>
        <mxCell id="88_fFIN6dx6QBWa1paX3-9" value="" style="rounded=0;whiteSpace=wrap;html=1;" vertex="1" parent="1">
          <mxGeometry x="570" y="255" width="120" height="75" as="geometry" />
        </mxCell>
      </root>
    </mxGraphModel>
  </diagram>
</mxfile>
